<svg height="512" viewBox="0 0 128 128" width="512" xmlns="http://www.w3.org/2000/svg"><g><path d="m10.707 95.728h31.756v11.373h-31.756z" fill="#a4390d" transform="matrix(.707 -.707 .707 .707 -63.925 48.503)"/><path d="m35.06 83.907 57.862-68.642 28.578-8.765-8.765 28.578-68.642 57.862z" fill="#bba227"/><path d="m30.273 85.5h15.46a9 9 0 0 1 9 9 0 0 0 0 1 0 0h-33.46a0 0 0 0 1 0 0 9 9 0 0 1 9-9z" fill="#dc4c12" transform="matrix(.707 .707 -.707 .707 74.768 -.513)"/><path d="m5.798 109.675h19.12v5.934h-19.12z" fill="#dc4c12" transform="matrix(-.707 -.707 .707 -.707 -53.433 203.152)"/><path d="m52.113 77.637a1.751 1.751 0 0 1 -1.238-2.988l52.581-52.58a1.75 1.75 0 1 1 2.474 2.475l-52.58 52.58a1.743 1.743 0 0 1 -1.237.513z" fill="#fff"/></g><g><path d="m95.739 85.562h11.373v31.726h-11.373z" fill="#a4390d" transform="matrix(.707 -.707 .707 .707 -42.012 101.425)"/><path d="m83.907 92.94-68.642-57.862-8.765-28.578 28.578 8.765 57.862 68.642z" fill="#f3d232"/><path d="m82.267 85.5h15.46a9 9 0 0 1 9 9 0 0 0 0 1 0 0h-33.46a0 0 0 0 1 0 0 9 9 0 0 1 9-9z" fill="#dc4c12" transform="matrix(.707 -.707 .707 .707 -37.278 89.997)"/><path d="m103.082 109.675h19.12v5.934h-19.12z" fill="#dc4c12" transform="matrix(-.707 .707 -.707 -.707 271.942 112.642)"/><path d="m75.887 77.637a1.743 1.743 0 0 1 -1.237-.513l-52.58-52.58a1.75 1.75 0 0 1 2.474-2.475l52.581 52.58a1.751 1.751 0 0 1 -1.238 2.988z" fill="#eaeaf0"/></g></svg>