<svg height="512" viewBox="0 0 60 60" width="512" xmlns="http://www.w3.org/2000/svg"><g id="Page-1" fill="none" fill-rule="evenodd"><g id="013---Scimitar" fill-rule="nonzero"><path id="Shape" d="m43.94 45.73c-.3616759 1.5724118-1.2510324 2.9735013-2.52 3.97-.2579089.1930263-.5934289.2489463-.9.15-.7-.22-1.39-.44-2.06-.67-17-5.78-26.31-15.56-31.4-24.89-3.81957798-7.0002946-5.89811487-14.81710253-6.06-22.79-.00197121-.21081521.13032748-.39955286.32917455-.46960126.19884708-.0700484.42022958-.00590299.55082545.15960126 1.59 2.02 6.01 5.71 17.62 5.81.1343592-.00002687.2630754.05402204.3571364.14996428.0940611.09594225.1455508.22570341.1428636.36003572-.11 3.32.27 23.27 21.66 36.15.57.34 1.16.68 1.77 1.02.3759795.2059438.5805705.6271605.51 1.05z" fill="#7f8d93"/><path id="Shape" d="m43.43 44.68c-.61-.34-1.2-.68-1.77-1.02-21.39-12.88-21.77-32.83-21.66-36.15.0026872-.13433231-.0488025-.26409347-.1428636-.36003572-.094061-.09594224-.2227772-.14999115-.3571364-.14996428-11.61-.1-16.03-3.79-17.62-5.81-.13059587-.16550425-.35197837-.22964966-.55082545-.15960126-.19884707.0700484-.33114576.25878605-.32917455.46960126 0 .479.017 1.055.051 1.709 2.549 1.818 7.158 3.72 15.449 3.791.1343592-.00002687.2630754.05402204.3571364.14996428.0940611.09594225.1455508.22570341.1428636.36003572-.11 3.32.27 23.27 21.66 36.15.57.34 1.16.68 1.77 1.02.3759795.2059438.5805705.6271605.51 1.05-.3100779 1.377254-1.0333288 2.6269813-2.073 3.582.544.182 1.091.361 1.653.538.3065711.0989463.6420911.0430263.9-.15 1.2689676-.9964987 2.1583241-2.3975882 2.52-3.97.0705705-.4228395-.1340205-.8440562-.51-1.05z" fill="#545c60"/><path id="Shape" d="m47.74 47.49c-.5045797 1.8326525-1.4485222 3.5145863-2.75 4.9-1.79 1.9-3.92 2.73-5.36 1.89-1.35-.78-1.74-2.8-1.17-5.1.67.23 1.36.45 2.06.67.3065711.0989463.6420911.0430263.9-.15 1.2689676-.9964987 2.1583241-2.3975882 2.52-3.97.0705705-.4228395-.1340205-.8440562-.51-1.05-.61-.34-1.2-.68-1.77-1.02 1.7-1.61 3.63-2.27 4.97-1.5 1.39.8 1.76 2.93 1.11 5.33z" fill="#ffdb00"/><path id="Shape" d="m43.728 42.235c3.165 2.054.307 9.95-4.2 11.97 2.727 1.776 7.116-2.481 8.21-6.715 1.072-3.949-.744-6.718-4.01-5.255z" fill="#fdc008"/><path id="Shape" d="m58.04 56.13c-1.26 2.19-3.3 3.38-4.56 2.66-.87-.5-1.13-1.81-.78-3.31l-7.71-3.09c1.3014778-1.3854137 2.2454203-3.0673475 2.75-4.9l6.84 4.57c1.16-1.22 2.55-1.75 3.49-1.21 1.25.72 1.24 3.09-.03 5.28z" fill="#ff9701"/><path id="Shape" d="m58.07 50.85c-.85872-.3602795-1.8474861-.2021389-2.551.408.766.988.611 2.993-.479 4.872-.4965609.8885854-1.1865817 1.6541361-2.019 2.24.1234306.1692352.2794984.3120423.459.42 1.26.72 3.3-.47 4.56-2.66s1.28-4.56.03-5.28z" fill="#f47c00"/><path id="Shape" d="m33.761 44.048c-.1410422.000106-.2804823-.0298958-.409-.088-10.683-4.8-18.644-11.9-23.665-21.107-1.65611762-3.0383331-2.97015011-6.2509715-3.918-9.579-.11207004-.3476646-.02565893-.7287743.22539888-.9941049.25105782-.2653307.62681261-.3726612.98013683-.2799663.35332423.092695.62799495.3706653.71646429.7250712.90844494 3.1857569 2.16677551 6.2611544 3.752 9.17 4.807 8.819 12.457 15.628 22.728 20.241.4299286.1933689.6664229.6607343.5675823 1.1216688-.0988406.4609346-.5061694.7902416-.9775823.7903312z" fill="#f4f4f4"/><circle id="Oval" cx="6.037" cy="8.999" fill="#f4f4f4" r="1"/><g fill="#000"><path id="Shape" d="m17.2 11.574c-.1088144-.9475021-.8715189-1.68634588-1.822-1.765-1.3922397-.11972614-2.7771736-.31299603-4.149-.579-.3527782-.07474033-.718473.04624397-.9570711.31663176-.2385981.27038778-.31313929.64829444-.1950841.98903134.1180551.3407368.4104193.5915217.7651552.6563369 1.4435666.2826507 2.9023699.4809865 4.369.594.6842979 6.2174361 2.6045896 12.2353474 5.648 17.7.1702599.3188944.4993742.5210714.8607916.5287899.3614173.0077184.698863-.1802236.8825821-.4915584.1837192-.3113348.1851056-.6975858.0036263-1.0102315-2.9135289-5.2293478-4.7515875-10.9886661-5.406-16.939z"/><path id="Shape" d="m58.569 49.983c-1.155-.663-2.7-.34-4.083.8l-5.628-3.752c.524-2.638-.1-4.8-1.731-5.742-1.538-.885-3.619-.438-5.558 1.132-20.644-12.821-20.646-32.592-20.569-34.877.0118687-.40435345-.1400852-.7963593-.4213835-1.08707192-.2812984-.29071261-.6680915-.45548412-1.0726165-.45692808-11.012-.1-15.278-3.443-16.839-5.428-.39384839-.50130339-1.06255225-.69722255-1.664656-.48771664-.60210374.20950592-1.00475228.77820911-1.002344 1.41571664.15879489 8.13988261 2.27802164 16.1214572 6.178 23.268 6.322 11.6 16.79 20.024 31.141 25.076-.372 2.43.286 4.418 1.81 5.3.5348928.3081637 1.1427271.4670295 1.76.46 1.648977-.1177791 3.1948896-.8458127 4.336-2.042l6.366 2.549c-.2830206 1.3557778.2672838 2.7500132 1.4 3.547.3961372.2246407.8446239.3405573 1.3.336 1.583 0 3.412-1.27 4.616-3.363.9262817-1.4438413 1.2664378-3.1868285.951-4.873-.1720754-.7415781-.6370692-1.3818915-1.289-1.775zm-50.635-26.173c-3.51629572-6.4579532-5.53286431-13.6249747-5.9-20.969 2.284 2.2 7.108 4.975 16.955 5.151-.013 4.173 1.115 24.917 23.966 37.576-.3166717 1.3185238-1.0706421 2.4908968-2.139 3.326-15.336-4.749-26.399-13.188-32.882-25.084zm32.2 29.6c-.71-.41-1.023-1.533-.88-2.931.326.106.642.219.971.321.1980956.0620027.404428.0936943.612.094.4384946.002328.8647774-.14435 1.209-.416 1.4583438-1.1468612 2.4757234-2.7623047 2.88-4.573.1478328-.8443235-.2588065-1.6889748-1.011-2.1-.165-.091-.317-.187-.479-.279.7449949-.6334628 1.7702694-.823822 2.693-.5.922.531 1.18 2.22.641 4.214-.4624797 1.6693099-1.3231002 3.201475-2.508 4.465-1.475 1.565-3.17 2.268-4.128 1.709zm17.04 2.217c-1.088 1.892-2.618 2.62-3.192 2.292-.2910335-.2575104-.4464797-.6352335-.421-1.023l.071.028c.1166679.0486656.2415983.0744664.368.076.4790176-.0002777.8905595-.3402054.9813102-.810548.0907508-.4703427-.1647818-.9389797-.6093102-1.117452l-7.733-3.1c.2994436-.4031305.5749192-.8235229.825-1.259.3050997-.5370812.5724135-1.0947645.8-1.669l7.176 4.785c.297245.1982824.6776931.2229246.9980332.0646441.3203401-.1582804.5319049-.4754371.555-.832s-.1457882-.6983617-.4430332-.8966441l-.294-.2c.3679677-.293955.8563629-.389543 1.308-.256.1838969.1349352.3102737.3341394.354.558.16739 1.1744248-.096963 2.3696982-.744 3.364z"/></g></g></g></svg>