<?xml version="1.0" encoding="iso-8859-1"?>
<!-- Generator: Adobe Illustrator 19.0.0, SVG Export Plug-In . SVG Version: 6.00 Build 0)  -->
<svg version="1.1" id="Capa_1" xmlns="http://www.w3.org/2000/svg" xmlns:xlink="http://www.w3.org/1999/xlink" x="0px" y="0px"
	 viewBox="0 0 444.685 444.685" style="enable-background:new 0 0 444.685 444.685;" xml:space="preserve">
<g>
	<g>
		<path style="fill:#00EFD1;" d="M397.355,76.881c0,67.396,7.837,150.988-21.42,223.608L139.265,63.82v-1.045
			c31.343-11.105,59.875-28.937,83.592-52.245C269.355,55.983,324.735,76.881,397.355,76.881z"/>
		<path style="fill:#00ACEA;" d="M139.265,63.82l236.669,236.669c-13.52,34.002-35.669,63.893-64.261,86.727L47.314,122.856h-0.522
			c0-15.673,0.522-31.347,0.522-45.976c31.051,0.448,61.957-4.32,91.429-14.106L139.265,63.82z"/>
		<path style="fill:#00EFD1;" d="M47.314,122.856l264.359,264.359c-26.664,21.113-56.932,37.22-89.339,47.543
			C47.314,374.154,44.702,236.228,46.792,122.856H47.314z"/>
	</g>
	<path style="fill:#083863;" d="M408.327,112.407c-0.522-12.539-0.522-24.033-0.522-35.527c0-5.771-4.678-10.449-10.449-10.449
		c-69.486,0-122.776-20.375-167.706-63.216c-3.706-4.04-9.986-4.31-14.025-0.603c-0.21,0.192-0.411,0.394-0.603,0.603
		c-22.611,22.04-49.693,38.966-79.412,49.633c-28.423,9.605-58.298,14.201-88.294,13.584c-5.771,0-10.449,4.678-10.449,10.449
		c0,10.971,0,22.465-0.522,33.959v12.016c-2.09,102.4-4.702,257.045,182.335,321.829h6.792c33.547-11.007,64.99-27.611,92.996-49.11
		c29.769-24.231,52.799-55.718,66.873-91.429C410.939,241.975,409.372,173.012,408.327,112.407z M222.335,423.787
		C66.123,367.885,56.196,245.632,56.718,146.889L296,386.171C273.391,402.203,248.578,414.873,222.335,423.787z M312.196,373.109
		L57.241,118.154v-6.792c0-8.359,0.522-16.196,0.522-24.033c26.383-0.777,52.552-4.992,77.845-12.539l227.788,227.788
		C351.826,329.626,334.329,353.73,312.196,373.109z M371.755,281.158L157.029,66.954c23.884-10.537,45.931-24.823,65.306-42.318
		c44.931,40.751,97.698,60.604,164.571,62.694c0,8.359,0.522,16.718,0.522,25.078C388.474,166.742,389.518,226.824,371.755,281.158z
		"/>
</g>
<g>
</g>
<g>
</g>
<g>
</g>
<g>
</g>
<g>
</g>
<g>
</g>
<g>
</g>
<g>
</g>
<g>
</g>
<g>
</g>
<g>
</g>
<g>
</g>
<g>
</g>
<g>
</g>
<g>
</g>
</svg>
